JAZZ A FILM by KEN BURNS
Episode 7 "Dedicated to Chaos" (1940 to 1945) of 10 Episodes
Label: PDS
Released:2001
Duration: 1hr 56mn
Language: English
Format: Mpeg


"Dedicated to Chaos" finds jazz musicians teetering on the brink of the modern era, fighting against the straightjacket of clichéd, big band arrangements. The revolution started at Minton’s Playhouse, a rundown club where musicians like Thelonious Monk, Dizzy Gillespie, and Charlie Christian jammed on Monday nights. When they hooked up with a young saxophone player from Kansas City named Charlie Parker, the bop insurgency had arrived.


Ken Burns—Director/Producer/Cinematography
Lynn Novick--Producer
Geoffrey C. Ward—Screenwriter 
Buddy Squires—Cinematography 
Keith David—Narrator
Paul Barnes—Film Editor


Episode 1
Episode 2
[url]
Episode 3
Episode 4
Episode 5
Episode 6

Episodes 8 -10 to follow

General
Complete name                    : F:\MUSIC UP\Jazz a Film by Ken Burns Episode 7( mpg)jazz
Format                           : MPEG-4
Format profile                   : Base Media / Version 2
Codec ID                         : mp42
File size                        : 694 MiB
Duration                         : 1h 56mn
Overall bit rate                 : 834 Kbps

Video
ID                               : 1
Format                           : MPEG-4 Visual
Duration                         : 1h 55mn
Bit rate mode                    : Variable
Bit rate                         : 752 Kbps
Maximum bit rate                 : 3 599 Kbps
Width  x Height                          : 416 x 320pixels
Display aspect ratio             : 1.300
Frame rate mode                  : Constant
Frame rate                       : 29.970 fps
Color space                      : YUV
Chroma subsampling               : 4:2:0
Bit depth                        : 8 bits
Scan type                        : Progressive
Compression mode                 : Lossy
Bits/(Pixel*Frame)               : 0.188
Stream size                      : 621 MiB (90%)
Language                         : English

Audio
ID                               : 2
Format                           : AAC
Format profile                   : LC
Codec ID                         : 40
Bit rate mode                    : Variable
Bit rate                         : 80.6 Kbps
Maximum bit rate                 : 154 Kbps
Channel(s)                       : 2 channels
Channel positions                : Front: L R
Sampling rate                    : 44.1 KHz
Compression mode                 : Lossy
Stream size                      : 66.6 MiB (10%)
